<svg xmlns="http://www.w3.org/2000/svg" id="Layer_1" data-name="Layer 1" viewBox="0 0 180 180">
  <defs>
    <style>
      .cls-1 {
        fill: none;
      }

      .cls-1, .cls-2 {
        stroke: #00ff1e;
        stroke-linecap: round;
        stroke-miterlimit: 10;
        stroke-width: 4px;
      }

      .cls-2 {
        fill: #00ff1e;
      }
    </style>
  </defs>
  <path class="cls-2" d="M105.86,146.76h-54.02c-2,0-3.39-2.11-2.71-4.11l22.39-65.87c.41-1.2,1.48-2.01,2.69-2.01h9.28c1.2,0,2.28.8,2.69,2.01l22.39,65.87c.68,2-.71,4.11-2.71,4.11Z" />
  <path class="cls-1" d="M107.07,45.45v4.86c0,1.58-1.28,2.86-2.86,2.86h-15.86c-1.58,0-2.86,1.28-2.86,2.86v4.86c0,1.58-1.28,2.86-2.86,2.86h-7.57c-1.58,0-2.86-1.28-2.86-2.86v-4.86c0-1.58-1.28-2.86-2.86-2.86h-6.49c-1.58,0-2.86-1.28-2.86-2.86v-4.86c0-1.58,1.28-2.86,2.86-2.86h41.36c1.58,0,2.86,1.28,2.86,2.86Z" />
  <line class="cls-2" x1="118.56" y1="47.47" x2="131.04" y2="47.47" />
  <line class="cls-2" x1="113.8" y1="42.04" x2="122.6" y2="33.24" />
  <line class="cls-2" x1="113.8" y1="52.89" x2="121.08" y2="60.17" />
</svg>