<svg xmlns="http://www.w3.org/2000/svg" id="Layer_1" data-name="Layer 1" viewBox="0 0 180 180">
  <defs>
    <style>
      .cls-1 {
        stroke-linecap: round;
      }

      .cls-1, .cls-2 {
        fill: none;
        stroke: #9f285b;
        stroke-miterlimit: 10;
        stroke-width: 4px;
      }

      .cls-3 {
        fill: #9f285b;
      }
    </style>
  </defs>
  <rect class="cls-3" x="68.13" y="93.77" width="38.55" height="38.55" />
  <line class="cls-2" x1="92.92" y1="68.66" x2="92.92" y2="68.65" />
  <path class="cls-2" d="M106.68,87.11v58.65c0,1.86-1.5,3.36-3.36,3.36h-31.83c-1.86,0-3.36-1.5-3.36-3.36v-58.19c0-8.78,5.73-16.46,13.76-18.91,1.53-.48,3.15-.75,4.82-.81.46-.02.91-.02,1.36.01,1.68.05,3.31.32,4.85.79,7.2,2.14,12.64,8.39,13.6,16.03.11.79.16,1.61.16,2.43Z" />
  <path class="cls-2" d="M92.92,58.94v9.71c-1.54-.47-3.17-.74-4.85-.79-.45-.03-.9-.03-1.36-.01-1.67.06-3.29.33-4.82.81v-9.72c0-1.9,1.54-3.44,3.44-3.44h4.15c1.9,0,3.44,1.54,3.44,3.44Z" />
  <path class="cls-2" d="M114.86,72.05c0,5.68-3.43,10.54-8.34,12.63-.96-7.64-6.4-13.89-13.6-16.03v-7.59c2.29-1.71,5.13-2.73,8.21-2.73,7.59,0,13.73,6.14,13.73,13.72Z" />
  <path class="cls-1" d="M103.21,65.87c1.75.59,3.17,1.89,3.91,3.56" />
  <circle class="cls-2" cx="92.92" cy="39.12" r="8.24" />
  <circle class="cls-2" cx="70.37" cy="52.08" r="5.24" />
</svg>